<svg width="4729" height="3333" viewBox="0 0 4729 3333" fill="none" xmlns="http://www.w3.org/2000/svg">
<path d="M2656 853L2300 2549L836.5 1812L1461 41L2656 853Z" fill="#FF729F"/>
<path d="M1115 1708L3172 3333L793 3066.5L0 2551L1115 1708Z" fill="#81F4E1"/>
<path d="M3226 1862L1834 3109.5L4728.5 2954.5L4412.5 1895L3226 1862Z" fill="#56CBF9"/>
<path d="M3011.5 0.5L2285 1382L3093.5 2390.5C3591.67 2008.33 4599.2 1244 4644 1244C4688.8 1244 3574.33 415 3011.5 0.5Z" fill="#FCD6F6"/>
<path d="M1767 1684.5C1751 1709 1722.9 1766 1736.5 1816C1750.1 1866 1794.83 1908.5 1815.5 1923.5C1758.17 1976 1670.7 2112.1 1779.5 2236.5C1888.3 2360.9 2009.5 2314 2056.5 2275C2086.83 2367.33 2222.5 2551.5 2522.5 2549.5C2822.5 2547.5 2931.17 2389.33 2948 2310.5C2995 2313.67 3099.5 2303.3 3141.5 2236.5C3183.5 2169.7 3171.67 2092.33 3160.5 2062C3194.67 2044.5 3261.1 1988 3253.5 1902C3245.9 1816 3199.33 1770.83 3177 1759C3187.17 1753.83 3207.4 1735.7 3207 1704.5C3206.6 1673.3 3179.83 1645.5 3166.5 1635.5C3065.83 1653.33 2824.4 1671.3 2664 1600.5C2463.5 1512 2500.5 1473.5 2273 1476.5C2045.5 1479.5 1862.5 1684.5 1767 1684.5Z" fill="white"/>
<path d="M1767 1684.5C1751 1709 1722.9 1766 1736.5 1816C1750.1 1866 1794.83 1908.5 1815.5 1923.5C1758.17 1976 1670.7 2112.1 1779.5 2236.5C1888.3 2360.9 2009.5 2314 2056.5 2275C2086.83 2367.33 2222.5 2551.5 2522.5 2549.5C2822.5 2547.5 2931.17 2389.33 2948 2310.5C2995 2313.67 3099.5 2303.3 3141.5 2236.5C3183.5 2169.7 3171.67 2092.33 3160.5 2062C3194.67 2044.5 3261.1 1988 3253.5 1902C3245.9 1816 3199.33 1770.83 3177 1759C3187.17 1753.83 3207.4 1735.7 3207 1704.5C3206.6 1673.3 3179.83 1645.5 3166.5 1635.5M1767 1684.5C1862.5 1684.5 2045.5 1479.5 2273 1476.5C2500.5 1473.5 2463.5 1512 2664 1600.5C2824.4 1671.3 3065.83 1653.33 3166.5 1635.5M1767 1684.5C1752 1684.5 1707.4 1690 1691 1672C1670.5 1649.5 1704.5 1600 1531 1291M3166.5 1635.5C3298 1618 3377.5 1704.5 3425 1680C3463 1660.4 3487.5 1420.5 3495 1303M1531 1291C1615.17 1225.33 1852.2 1090.6 2127 1077C2470.5 1060 2501 1147 2727 1203C2953 1259 3173.5 1210 3236.5 1223.5C3286.9 1234.3 3429.83 1281 3495 1303M1531 1291C1515.67 1204.33 1482.5 1023 1472.5 991C1460 951 1432.5 816 1449 791C1551.17 709.833 1822.6 551 2091 565C2426.5 582.5 2594 737.5 2771 749C2948 760.5 3247 641 3352 655.5C3457 670 3518 923 3506.5 1000C3495 1077 3458 1201 3495 1303" stroke="black" stroke-width="25"/>
<path d="M1531 1291C1615.17 1225.33 1852.2 1090.6 2127 1077C2470.5 1060 2501 1147 2727 1203C2953 1259 3173.5 1210 3236.5 1223.5C3286.9 1234.3 3429.83 1281 3495 1303C3458 1201 3495 1077 3506.5 1000C3518 923 3457 670 3352 655.5C3247 641 2948 760.5 2771 749C2594 737.5 2426.5 582.5 2091 565C1822.6 551 1551.17 709.833 1449 791C1432.5 816 1460 951 1472.5 991C1482.5 1023 1515.67 1204.33 1531 1291Z" fill="black"/>
<path d="M1767 1684.5C1751 1709 1722.9 1766 1736.5 1816C1750.1 1866 1794.83 1908.5 1815.5 1923.5C1758.17 1976 1670.7 2112.1 1779.5 2236.5C1888.3 2360.9 2009.5 2314 2056.5 2275C2086.83 2367.33 2222.5 2551.5 2522.5 2549.5C2822.5 2547.5 2931.17 2389.33 2948 2310.5C2995 2313.67 3099.5 2303.3 3141.5 2236.5C3183.5 2169.7 3171.67 2092.33 3160.5 2062C3194.67 2044.5 3261.1 1988 3253.5 1902C3245.9 1816 3199.33 1770.83 3177 1759C3187.17 1753.83 3207.4 1735.7 3207 1704.5C3206.6 1673.3 3179.83 1645.5 3166.5 1635.5M1767 1684.5C1862.5 1684.5 2045.5 1479.5 2273 1476.5C2500.5 1473.5 2463.5 1512 2664 1600.5C2824.4 1671.3 3065.83 1653.33 3166.5 1635.5M1767 1684.5C1752 1684.5 1707.4 1690 1691 1672C1670.5 1649.5 1704.5 1600 1531 1291M3166.5 1635.5C3298 1618 3377.5 1704.5 3425 1680C3463 1660.4 3487.5 1420.5 3495 1303M1531 1291C1615.17 1225.33 1852.2 1090.6 2127 1077C2470.5 1060 2501 1147 2727 1203C2953 1259 3173.5 1210 3236.5 1223.5C3286.9 1234.3 3429.83 1281 3495 1303M1531 1291C1515.67 1204.33 1482.5 1023 1472.5 991C1460 951 1432.5 816 1449 791C1551.17 709.833 1822.6 551 2091 565C2426.5 582.5 2594 737.5 2771 749C2948 760.5 3247 641 3352 655.5C3457 670 3518 923 3506.5 1000C3495 1077 3458 1201 3495 1303" stroke="black" stroke-width="25"/>
<path d="M2664 1600.5C2824.4 1671.3 3065.83 1653.33 3166.5 1635.5C3298 1618 3377.5 1704.5 3425 1680C3463 1660.4 3487.5 1420.5 3495 1303C3429.83 1281 3286.9 1234.3 3236.5 1223.5C3173.5 1210 2953 1259 2727 1203C2501 1147 2470.5 1060 2127 1077C1852.2 1090.6 1615.17 1225.33 1531 1291C1704.5 1600 1670.5 1649.5 1691 1672C1707.4 1690 1752 1684.5 1767 1684.5C1862.5 1684.5 2045.5 1479.5 2273 1476.5C2500.5 1473.5 2463.5 1512 2664 1600.5Z" fill="#EFEFEF"/>
<path d="M1767 1684.5C1751 1709 1722.9 1766 1736.5 1816C1750.1 1866 1794.83 1908.5 1815.5 1923.5C1758.17 1976 1670.7 2112.1 1779.5 2236.5C1888.3 2360.9 2009.5 2314 2056.5 2275C2086.83 2367.33 2222.5 2551.5 2522.5 2549.5C2822.5 2547.5 2931.17 2389.33 2948 2310.5C2995 2313.67 3099.5 2303.3 3141.5 2236.5C3183.5 2169.7 3171.67 2092.33 3160.5 2062C3194.67 2044.5 3261.1 1988 3253.5 1902C3245.9 1816 3199.33 1770.83 3177 1759C3187.17 1753.83 3207.4 1735.7 3207 1704.5C3206.6 1673.3 3179.83 1645.5 3166.5 1635.5M1767 1684.5C1862.5 1684.5 2045.5 1479.5 2273 1476.5C2500.5 1473.5 2463.5 1512 2664 1600.5C2824.4 1671.3 3065.83 1653.33 3166.5 1635.5M1767 1684.5C1752 1684.5 1707.4 1690 1691 1672C1670.5 1649.5 1704.5 1600 1531 1291M3166.5 1635.5C3298 1618 3377.5 1704.5 3425 1680C3463 1660.4 3487.5 1420.5 3495 1303M1531 1291C1615.17 1225.33 1852.2 1090.6 2127 1077C2470.5 1060 2501 1147 2727 1203C2953 1259 3173.5 1210 3236.5 1223.5C3286.9 1234.3 3429.83 1281 3495 1303M1531 1291C1515.67 1204.33 1482.5 1023 1472.5 991C1460 951 1432.5 816 1449 791C1551.17 709.833 1822.6 551 2091 565C2426.5 582.5 2594 737.5 2771 749C2948 760.5 3247 641 3352 655.5C3457 670 3518 923 3506.5 1000C3495 1077 3458 1201 3495 1303" stroke="black" stroke-width="25"/>
<path d="M2056.5 2275C2086.83 2367.33 2222.5 2551.5 2522.5 2549.5C2822.5 2547.5 2931.17 2389.33 2948 2310.5C2963.73 2311.56 2985.89 2311.1 3010 2307.53C2954.8 2245.55 2901 2131.68 2881 2082.5C2583 2205.39 2170.5 2133.71 2001.5 2082.5C1973.17 2123.28 1919.2 2227.24 1930 2316.91C1984.62 2319.16 2031.26 2295.94 2056.5 2275Z" fill="black"/>
<path d="M3495 1303C3458 1201 3495 1077 3506.5 1000M2001.5 2082.5C1973.17 2123.28 1919.2 2227.24 1930 2316.91C1984.62 2319.16 2031.26 2295.94 2056.5 2275C2086.83 2367.33 2222.5 2551.5 2522.5 2549.5C2822.5 2547.5 2931.17 2389.33 2948 2310.5C2963.73 2311.56 2985.89 2311.1 3010 2307.53C2954.8 2245.55 2901 2131.68 2881 2082.5M2001.5 2082.5C2170.5 2133.71 2583 2205.39 2881 2082.5M2001.5 2082.5C1974 2082.5 1814.18 1992 1793 1955M2881 2082.5C2972.33 2051.17 3172.38 1960.1 3241.99 1846.5" stroke="black" stroke-width="25"/>
<ellipse cx="2155.5" cy="1862.5" rx="24.5" ry="60.5" fill="black"/>
<ellipse cx="2724.5" cy="1852.5" rx="24.5" ry="60.5" fill="black"/>
<path d="M1466 2405C1317.1 2427.18 991 2433 927.247 2354.34C906.453 2506.92 900.769 2868.26 967.5 2933C1034.5 2998 1275 2997 1477 2976.5C1679 2956 1926 2875.5 1954 2827.5C1989.58 2766.5 1982 2419 1897 2221.5C1906.5 2286.5 1654 2377 1466 2405Z" fill="black"/>
<path d="M927.5 2352.5C940 2290 1248.5 2192.5 1414 2181C1564.4 2170.55 1874.83 2170 1897 2221.5M927.5 2352.5C927.415 2353.11 927.331 2353.72 927.247 2354.34M927.5 2352.5C927.376 2353.12 927.291 2353.73 927.247 2354.34M1897 2221.5C1906.5 2286.5 1654 2377 1466 2405C1317.1 2427.18 991 2433 927.247 2354.34M1897 2221.5C1982 2419 1989.58 2766.5 1954 2827.5C1926 2875.5 1679 2956 1477 2976.5C1275 2997 1034.5 2998 967.5 2933C900.769 2868.26 906.453 2506.92 927.247 2354.34" stroke="black" stroke-width="25"/>
<path d="M1466 2405C1654 2377 1906.5 2286.5 1897 2221.5C1874.83 2170 1564.4 2170.55 1414 2181C1248.5 2192.5 940 2290 927.5 2352.5C927.415 2353.11 927.331 2353.72 927.247 2354.34C991 2433 1317.1 2427.18 1466 2405Z" fill="white"/>
<path d="M927.5 2352.5C940 2290 1248.5 2192.5 1414 2181C1564.4 2170.55 1874.83 2170 1897 2221.5M927.5 2352.5C927.415 2353.11 927.331 2353.72 927.247 2354.34M927.5 2352.5C927.376 2353.12 927.291 2353.74 927.247 2354.34M1897 2221.5C1906.5 2286.5 1654 2377 1466 2405C1317.1 2427.18 991 2433 927.247 2354.34M1897 2221.5C1982 2419 1989.58 2766.5 1954 2827.5C1926 2875.5 1679 2956 1477 2976.5C1275 2997 1034.5 2998 967.5 2933C900.769 2868.26 906.453 2506.93 927.247 2354.34" stroke="black" stroke-width="25"/>
<path d="M1502.4 2665.5C1585.9 2655.17 1758.6 2637.6 1781.4 2650C1795.22 2657.52 1798.7 2669.5 1797.87 2681.5C1796.99 2694.23 1791.27 2706.98 1787.92 2714.46L1787.9 2714.5C1781.4 2729 1806.4 2741.5 1804.9 2766C1804.06 2779.82 1804.01 2807.47 1800 2833C1796.9 2852.73 1797.93 2859.19 1787.9 2869C1777.19 2879.48 1682.45 2912.41 1577 2932C1456.14 2954.45 1321.67 2962.81 1291.5 2958C1247.39 2950.97 1232.85 2898.52 1225.3 2869C1223.18 2860.71 1222.12 2852.8 1221.9 2846C1221.41 2830.8 1218.15 2807.17 1219.02 2784.5C1219.92 2760.93 1225.3 2738.41 1242.9 2727.5C1278.4 2705.5 1386.9 2677.9 1502.4 2665.5Z" fill="white"/>
<path d="M1787.9 2714.5C1781.4 2729 1806.4 2741.5 1804.9 2766C1804.06 2779.82 1804.01 2807.47 1800 2833M1787.9 2714.5L1787.92 2714.46M1787.9 2714.5C1787.91 2714.49 1787.92 2714.47 1787.92 2714.46M1219.02 2784.5C1218.15 2807.17 1221.41 2830.8 1221.9 2846C1222.12 2852.8 1223.18 2860.71 1225.3 2869M1219.02 2784.5C1219.92 2760.93 1225.3 2738.41 1242.9 2727.5C1278.4 2705.5 1386.9 2677.9 1502.4 2665.5C1585.9 2655.17 1758.6 2637.6 1781.4 2650C1795.22 2657.52 1798.7 2669.5 1797.87 2681.5M1219.02 2784.5C1103.4 2800.5 921.5 2703 903 2704M1225.3 2869C1232.85 2898.52 1247.39 2950.97 1291.5 2958C1321.67 2962.81 1456.14 2954.45 1577 2932C1682.45 2912.41 1777.19 2879.48 1787.9 2869C1797.93 2859.19 1796.9 2852.73 1800 2833M1225.3 2869C1128.9 2908 997 2848.5 923 2864M1797.87 2681.5C1868.9 2681.5 1938.5 2541 1980.5 2537M1797.87 2681.5C1796.99 2694.23 1791.27 2706.98 1787.92 2714.46M1800 2833C1835.86 2842.5 1916 2724 1984.5 2727.5" stroke="white" stroke-width="25"/>
<path d="M1468.15 2062L1325 2262H1579.27L1792 2095.75L1468.15 2062Z" fill="white" stroke="black" stroke-width="20"/>
<path d="M1174.42 2067.24L1472.82 2297.6L1144.81 2292.5L961.987 2156.35L1174.42 2067.24Z" fill="white" stroke="black" stroke-width="20"/>
<path d="M1385.5 2238L1276 2221L1347.5 1997L1496.5 2200L1385.5 2238Z" fill="white" stroke="black" stroke-width="20"/>
<path d="M1101 2332C1101 2322.4 1057 2316.5 1057 2332C1057 2335.33 1058.9 2342.6 1066.5 2345C1076 2348 1101 2344 1101 2332Z" stroke="black" stroke-width="10"/>
<path d="M1269.5 2349.5C1277.9 2335.1 1227.5 2335.5 1229.5 2349.5C1229.5 2353.83 1231.9 2363.8 1241.5 2369C1253.5 2375.5 1259 2367.5 1269.5 2349.5Z" stroke="black" stroke-width="10"/>
<path d="M1658.5 2278.5C1654.9 2268.5 1646.67 2270.33 1643 2272.5C1637.5 2274.19 1635 2278.5 1635 2284C1635 2289.5 1643 2298.5 1654.5 2298.5C1666 2298.5 1663 2291 1658.5 2278.5Z" stroke="black" stroke-width="10"/>
<path d="M1745.5 2244.5C1738.5 2242.5 1748 2228 1753.5 2228C1755.67 2228 1769.5 2228.6 1769.5 2231C1769.5 2248 1760 2244.5 1745.5 2244.5Z" stroke="black" stroke-width="10"/>
<path d="M1726.5 2291C1735 2285 1723 2272.5 1718 2272.5C1714 2272.5 1711.5 2282 1708.5 2287.5C1705.5 2293 1718 2297 1726.5 2291Z" stroke="black" stroke-width="10"/>
<ellipse cx="1276.5" cy="2585.5" rx="18.5" ry="43.5" fill="white"/>
<ellipse cx="1750.5" cy="2520.5" rx="18.5" ry="43.5" fill="white"/>
<path d="M1415.7 2787.55C1415.97 2776.92 1435.22 2744.08 1448.86 2761.44C1459.15 2774.53 1470.85 2798.68 1459.43 2814.55C1454.47 2821.44 1446.56 2821.89 1438.89 2821.89C1429.09 2821.89 1426.54 2819.24 1438 2819.24C1445.78 2819.24 1456.48 2816.89 1462.07 2823.5C1470.46 2833.42 1473.89 2844.63 1475.86 2857.39C1480.34 2886.55 1457.52 2888.99 1434.34 2885.12C1433.12 2884.92 1418.76 2874.82 1425.09 2881.16C1431.02 2887.09 1443.2 2886.06 1450.62 2884.68C1463.69 2882.25 1468.75 2878.72 1471.75 2865.61C1474.41 2853.97 1472.63 2842.33 1458.11 2840.52C1451.09 2839.64 1443.25 2835.47 1436.83 2835.09C1425.9 2834.45 1433.6 2837.16 1438.15 2833.62C1449.3 2824.96 1455.32 2818.92 1455.32 2804.72C1455.32 2793.65 1451.62 2782.33 1440.94 2776.99C1427.86 2770.45 1413.11 2774.35 1405.29 2786.09C1402.83 2789.77 1404.23 2776.61 1406.61 2772.88C1412.14 2764.19 1415.96 2760.48 1423.63 2753.22C1445.07 2732.91 1467 2777.37 1468.38 2792.54C1470.04 2810.88 1448.94 2822.39 1432.14 2820.71C1429.41 2820.44 1433.58 2816.66 1435.36 2816.6C1440.22 2816.46 1445.18 2816.47 1450.04 2816.6C1463.61 2816.99 1476.38 2828.14 1480.41 2840.67C1484.37 2853.01 1488.1 2869.93 1474.83 2878.52C1457.13 2889.97 1440.28 2875.57 1424.21 2870.01C1415.62 2867.04 1434.08 2874.52 1442.11 2866.49C1448.18 2860.42 1453.63 2848.3 1463.24 2848.3" stroke="black" stroke-width="10" stroke-linecap="round" stroke-linejoin="round"/>
<path d="M2979.36 2435.28C3179.22 2467.47 3792.2 2594.52 4143.46 2387.04C4143.46 2387.04 4183.2 2371.97 4190.01 2318.91C4198.01 2256.56 4146.29 2243.23 4137.36 2242.08C4163.31 2197.02 4191.18 2094.53 4095.09 2045.1C3999 1995.67 3931.01 2050.93 3909.03 2084.74C3878.72 2027.59 3839.25 1972.45 3748.44 1941.64C3657.62 1910.83 3584.28 1931.06 3553.39 1941.32C3485.46 1963.86 3441.85 2012.71 3430.07 2045.97C3396.11 2000.28 3302.47 1960.03 3195.9 2004.83C3078.05 2054.38 3049.26 2158.93 3053.01 2214.86C3010.52 2215.96 2939.17 2229.87 2927.13 2323.72C2915.8 2412 2979.36 2435.28 2979.36 2435.28Z" fill="white"/>
<path d="M2979.36 2435.28C2946.22 2516.72 2943.37 2715.72 2969.25 2777.27C2991.65 2830.55 3049.91 2879.37 3136.7 2890.5C3216.15 2900.7 3260.19 2906.35 3256.31 2936.6C3251.01 2977.86 3223.57 2952.06 3200.54 2978.34C3188.07 2992.58 3166.78 3025.43 3225.93 3047.64C3285.08 3069.85 3363.89 3056.77 3370.63 3043.52C3377.37 3030.27 3388.77 2980.74 3392.19 2954.04C3395.76 2926.26 3598.3 2924.15 3604.66 2936.43C3615.57 2957.49 3582.22 3028.83 3601.39 3044.39C3620.57 3059.96 3707.17 3072.59 3753.15 3063.87C3799.13 3055.15 3792 2982.33 3763.14 2986C3719.61 2991.55 3704.63 2974.47 3704.45 2956.8C3704.28 2939.13 3712.29 2931.39 3722.39 2930.37C3849.57 2917.45 4004.28 2886.38 4040.87 2848.74C4077.46 2811.09 4169.66 2646.48 4143.46 2387.04C3792.2 2594.52 3179.22 2467.47 2979.36 2435.28Z" fill="black"/>
<path d="M2979.36 2435.28C2946.22 2516.72 2943.37 2715.72 2969.25 2777.27C2991.65 2830.55 3049.91 2879.37 3136.7 2890.5C3216.15 2900.7 3260.19 2906.35 3256.31 2936.6C3251.01 2977.86 3223.57 2952.06 3200.54 2978.34C3188.07 2992.58 3166.78 3025.43 3225.93 3047.64C3285.08 3069.85 3363.89 3056.77 3370.63 3043.52C3377.37 3030.27 3388.77 2980.74 3392.19 2954.04C3395.76 2926.26 3598.3 2924.15 3604.66 2936.43C3615.57 2957.49 3582.22 3028.83 3601.39 3044.39C3620.57 3059.96 3707.17 3072.59 3753.15 3063.87C3799.13 3055.15 3792 2982.33 3763.14 2986C3719.61 2991.55 3704.63 2974.47 3704.45 2956.8C3704.28 2939.13 3712.29 2931.39 3722.39 2930.37C3849.57 2917.45 4004.28 2886.38 4040.87 2848.74C4077.46 2811.09 4169.66 2646.48 4143.46 2387.04M2979.36 2435.28C3179.22 2467.47 3792.2 2594.52 4143.46 2387.04M2979.36 2435.28C2979.36 2435.28 2915.8 2412 2927.13 2323.72C2939.17 2229.87 3010.52 2215.96 3053.01 2214.86C3049.26 2158.93 3078.05 2054.38 3195.9 2004.83C3302.47 1960.03 3396.11 2000.28 3430.07 2045.97C3441.85 2012.71 3485.46 1963.86 3553.39 1941.32C3584.28 1931.06 3657.62 1910.83 3748.44 1941.64C3839.25 1972.45 3878.72 2027.59 3909.03 2084.74C3931.01 2050.93 3999 1995.67 4095.09 2045.1C4191.18 2094.53 4163.31 2197.02 4137.36 2242.08C4146.29 2243.23 4198.01 2256.56 4190.01 2318.91C4183.2 2371.97 4143.46 2387.04 4143.46 2387.04" stroke="black" stroke-width="25"/>
<path d="M3648.81 2695.11C3735.96 2692.31 3938.95 2674.32 4053.7 2624.76C4050.02 2665.23 4033.71 2755.31 3997.87 2791.95C3926.09 2812.89 3753.23 2853.75 3636.07 2849.63C3631.34 2818.2 3627.26 2743.29 3648.81 2695.11Z" fill="white"/>
<path d="M3648.81 2695.11C3735.96 2692.31 3938.95 2674.32 4053.7 2624.76M3648.81 2695.11C3627.26 2743.29 3631.34 2818.2 3636.07 2849.63M3648.81 2695.11C3546.29 2701.16 3238.48 2563.62 2946.7 2528.71M4053.7 2624.76C4050.02 2665.23 4033.71 2755.31 3997.87 2791.95M4053.7 2624.76C4072.62 2617.25 4120.32 2546.89 4157.26 2550.62M3997.87 2791.95C3926.09 2812.89 3753.23 2853.75 3636.07 2849.63M3997.87 2791.95C4002.72 2802.51 4029.47 2814.96 4063.53 2841.06M3636.07 2849.63C3534.79 2862.71 3091.43 2761.42 3021.14 2860.05" stroke="white" stroke-width="25"/>
<path d="M3469.6 2056.28C3488.8 2000.68 3586.6 1995.78 3633.1 2000.28C3627.76 2018.94 3607.5 2065.78 3569.1 2103.78C3521.1 2151.28 3445.6 2125.78 3469.6 2056.28Z" stroke="black" stroke-width="15"/>
<path d="M3454.21 2183.91C3448.21 2163.11 3466.04 2153.91 3475.71 2151.91C3484.21 2150.16 3494.9 2149.73 3503 2162.12C3511.5 2175.12 3501.83 2223.29 3494 2234.62C3483.17 2232.12 3460.21 2204.71 3454.21 2183.91Z" stroke="black" stroke-width="15"/>
<path d="M3583.98 2154.32C3555.18 2139.52 3538.31 2154.15 3533.48 2163.32C3521.08 2189.72 3589.65 2200.65 3625.48 2202.82C3623.65 2192.82 3612.78 2169.12 3583.98 2154.32Z" stroke="black" stroke-width="15"/>
<path d="M3820.1 2118.42C3840.17 2092.6 3811.73 2065.59 3795.01 2055.31C3787.36 2050.53 3766.48 2045.7 3744.11 2064.64C3721.75 2083.57 3729.06 2158.1 3735.51 2193C3755.34 2178.9 3800.03 2144.24 3820.1 2118.42Z" stroke="black" stroke-width="15"/>
<path d="M3439.75 2143.82C3450.79 2118.45 3430.01 2102.48 3418.24 2097.68C3391.53 2086.77 3345.52 2098.34 3320 2108.37C3356.36 2160.93 3425.94 2175.53 3439.75 2143.82Z" stroke="black" stroke-width="15"/>
<ellipse cx="3648" cy="2596" rx="23" ry="46" fill="white"/>
<ellipse cx="4013" cy="2537" rx="23" ry="46" fill="white"/>
<path d="M3700.41 2719.6C3697.85 2725.99 3695.53 2732.69 3692.87 2739.22M3692.87 2739.22C3690.97 2743.88 3688.9 2748.46 3686.45 2752.77M3692.87 2739.22C3693.59 2738.14 3694.33 2737.07 3695.13 2736.03C3697.07 2733.48 3705.7 2722.13 3705.69 2722.24C3705.39 2727.06 3699.01 2733.32 3696.15 2737.06C3694.03 2739.83 3688.22 2749.72 3686.45 2752.77M3692.87 2739.22C3688.2 2746.29 3685.02 2754.08 3680.75 2761.41C3678.49 2765.29 3683.08 2758.89 3685.74 2759.65C3692.91 2761.7 3678.04 2789.55 3674 2790.9M3686.45 2752.77C3686.31 2753.01 3686.17 2753.25 3686.03 2753.49C3685.79 2753.9 3685.98 2753.57 3686.45 2752.77ZM3734.74 2738.08C3728.57 2752.27 3719.22 2764.61 3713 2778.66M3713 2778.66C3712.71 2779.31 3712.42 2779.97 3712.15 2780.63C3711.03 2783.32 3697.92 2808.91 3703.34 2795.89C3705.27 2791.28 3708.78 2785.22 3713 2778.66ZM3713 2778.66C3718.74 2769.72 3725.79 2759.85 3731.88 2751.46M3731.88 2751.46C3742.92 2736.22 3750.82 2725.82 3742.08 2734.56C3738.12 2738.52 3734.85 2745.14 3731.88 2751.46ZM3731.88 2751.46C3729.91 2755.63 3728.06 2759.68 3726.23 2762.73C3715.43 2780.74 3705.7 2800.41 3692.78 2817.02C3687.64 2823.63 3692.13 2821.74 3695.71 2817.31C3703.53 2807.68 3711.69 2797.87 3718.9 2788.26M3761.15 2777.7C3756.03 2784.52 3750.4 2791.2 3746.48 2798.83C3745.71 2800.32 3744.78 2802.91 3743.88 2805.53M3743.88 2805.53C3742.04 2810.88 3740.32 2816.35 3740.32 2812.91C3740.32 2810.85 3741.85 2808.24 3743.88 2805.53ZM3743.88 2805.53C3746.67 2801.79 3750.41 2797.85 3752.43 2794.86M3752.43 2794.86C3752.74 2794.4 3753.01 2793.96 3753.23 2793.54C3757.69 2785.11 3755.82 2788.64 3752.43 2794.86ZM3752.43 2794.86C3749.17 2800.82 3744.51 2809.26 3742.66 2812.03M3932.81 2693.19C3935.21 2690.71 3951.72 2674.03 3943.39 2685.61M3943.39 2685.61C3943.2 2685.87 3943 2686.15 3942.79 2686.44C3940.68 2689.31 3925.65 2703.38 3932.81 2695.83C3934.83 2693.7 3940.65 2687.61 3943.39 2685.61ZM3943.39 2685.61C3945.31 2684.21 3945.71 2684.82 3942.2 2690.25C3935.87 2700.04 3930.48 2708.72 3922.25 2716.96M3985.63 2682.63C3995.45 2670.05 3997.98 2671.65 3988.86 2684.68C3977.85 2700.41 3965.5 2715.05 3954.15 2730.46M3954.15 2730.46C3953.29 2731.62 3952.44 2732.8 3951.59 2733.98C3951.1 2734.66 3949.9 2736.45 3948.52 2738.51M3954.15 2730.46C3950.69 2734.71 3947.49 2739.04 3944.84 2743.37C3939.54 2752.04 3944.69 2744.25 3948.52 2738.51M3954.15 2730.46C3960.77 2722.33 3968.33 2714.45 3974.77 2707.27C3975.06 2706.95 3977.88 2703.96 3981.47 2700.11M3948.52 2738.51C3946.09 2745.96 3929.75 2776.16 3938.53 2759.8C3949.24 2739.85 3964.16 2723.45 3977.56 2705.37C3978.1 2704.63 3979.56 2702.64 3981.47 2700.11M3948.52 2738.51C3948.57 2738.36 3948.62 2738.22 3948.66 2738.08M3981.47 2700.11C3988.65 2692.4 3998.93 2681.25 3998.25 2681.16C3996.24 2680.87 3986.98 2692.78 3981.47 2700.11ZM4001.47 2735.44C4000.76 2736.84 3994.43 2748.21 3990.2 2756.11M3990.2 2756.11C3986.75 2762.56 3984.71 2766.71 3988.27 2761.27C3995.92 2749.56 4006.71 2736.81 4011.89 2723.85C4016.76 2711.69 3998.9 2742 3990.2 2756.11ZM3990.2 2756.11C3989.49 2757.26 3988.84 2758.31 3988.27 2759.21C3984.53 2765.13 3973.79 2782.8 3978.88 2777.99C3989.3 2768.15 3995.58 2756.13 4001.47 2743.37" stroke="#FF729F" stroke-width="10" stroke-linecap="round" stroke-linejoin="round"/>
<path d="M2026 3005C2040.5 3013 2094.2 3048.2 2237 3075C2415.5 3108.5 2666 3107.5 2765 3084C2864 3060.5 2995 2981 3022.5 2949.5C3050 2918 3110.5 2854.5 3097 2733C3083.5 2611.5 2918 2350 2886.5 2304.5C2855 2259 2751 2136.5 2700.5 2122.5C2705 2155 2711.5 2268.5 2711 2325C2710.5 2381.5 2690.5 2396 2651 2428C2610.83 2460.54 2513 2484.5 2474.5 2487C2436 2489.5 2346.5 2485.5 2288 2473.5C2229.5 2461.5 2224 2413.5 2201 2340.5C2182.6 2282.1 2176.67 2183.5 2176 2141.5C2133.83 2187.83 2090.5 2218 1986.5 2413.5C1917.38 2543.43 1863.97 2767.9 1878.5 2849C1896.5 2949.5 2011.5 2997 2026 3005Z" fill="white"/>
<path d="M2700.5 2122.5C2751 2136.5 2855 2259 2886.5 2304.5C2918 2350 3083.5 2611.5 3097 2733C3110.5 2854.5 3050 2918 3022.5 2949.5C2995 2981 2864 3060.5 2765 3084C2666 3107.5 2415.5 3108.5 2237 3075C2094.2 3048.2 2040.5 3013 2026 3005C2011.5 2997 1896.5 2949.5 1878.5 2849C1863.97 2767.9 1917.38 2543.43 1986.5 2413.5C2090.5 2218 2133.83 2187.83 2176 2141.5M2700.5 2122.5C2693.83 2094.83 2675.5 2033.1 2655.5 2007.5C2630.5 1975.5 2580.5 1935.5 2433 1950.5C2285.5 1965.5 2260.5 1970.5 2224 2007.5C2180.71 2051.39 2180.5 2092.5 2176 2141.5M2700.5 2122.5C2705 2155 2711.5 2268.5 2711 2325C2710.5 2381.5 2690.5 2396 2651 2428C2610.83 2460.54 2513 2484.5 2474.5 2487C2436 2489.5 2346.5 2485.5 2288 2473.5C2229.5 2461.5 2224 2413.5 2201 2340.5C2182.6 2282.1 2176.67 2183.5 2176 2141.5" stroke="black" stroke-width="25"/>
<path d="M2700.5 2122.5C2693.83 2094.83 2675.5 2033.1 2655.5 2007.5C2630.5 1975.5 2580.5 1935.5 2433 1950.5C2285.5 1965.5 2260.5 1970.5 2224 2007.5C2180.71 2051.39 2180.5 2092.5 2176 2141.5C2176.67 2183.5 2182.6 2282.1 2201 2340.5C2224 2413.5 2229.5 2461.5 2288 2473.5C2346.5 2485.5 2436 2489.5 2474.5 2487C2513 2484.5 2610.83 2460.54 2651 2428C2690.5 2396 2710.5 2381.5 2711 2325C2711.5 2268.5 2705 2155 2700.5 2122.5Z" fill="black"/>
<path fill-rule="evenodd" clip-rule="evenodd" d="M2684.46 3026.5C2680.27 3053.64 2678 3067.58 2675.08 3084.5C2554.32 3093.88 2375.63 3088.44 2239.08 3062.82C2230.7 3049.84 2215.15 3038.76 2202.96 3012.5C2192.14 2989.16 2182.33 2963.46 2178 2940.5C2175.13 2925.29 2173.1 2908.58 2171.68 2892C2168.55 2855.39 2168.43 2819.4 2169 2801.5C2251.17 2784.5 2422.9 2768 2493.5 2768C2558.88 2768 2639.81 2781.43 2676.93 2787.59L2676.94 2787.59C2680.13 2788.12 2683 2788.59 2685.5 2789C2686.36 2794.88 2687.43 2801.15 2688.57 2807.85C2691.65 2825.96 2695.28 2847.29 2696.91 2873C2698.07 2891.17 2698.23 2911.53 2696.5 2934.5C2694.93 2955.38 2689.82 2991.77 2684.46 3026.5Z" fill="black"/>
<path d="M2171.68 2892C2173.1 2908.58 2175.13 2925.29 2178 2940.5C2182.33 2963.46 2192.14 2989.16 2202.96 3012.5M2171.68 2892C2168.55 2855.39 2168.43 2819.4 2169 2801.5C2251.17 2784.5 2422.9 2768 2493.5 2768C2558.88 2768 2639.81 2781.43 2676.93 2787.59M2171.68 2892C2111.33 2888.5 1877.82 2781.5 1877.82 2781.5M2696.91 2873C2698.07 2891.17 2698.23 2911.53 2696.5 2934.5C2694.93 2955.38 2689.82 2991.77 2684.46 3026.5M2696.91 2873C2786.84 2854.33 2992.49 2798.2 3095.6 2723M2696.91 2873C2695.28 2847.29 2691.65 2825.96 2688.57 2807.85C2687.43 2801.15 2686.36 2794.88 2685.5 2789C2683 2788.59 2680.13 2788.12 2676.94 2787.59M2202.96 3012.5C2215.15 3038.76 2230.7 3049.84 2239.08 3062.82C2375.63 3088.44 2554.32 3093.88 2675.08 3084.5C2678 3067.58 2680.27 3053.64 2684.46 3026.5M2202.96 3012.5C2159.98 3013.41 2047 3004.1 1991 2987M2684.46 3026.5C2746.47 3034.17 2882.1 3035.1 2942.5 3007.5M2676.93 2787.59L2676.94 2787.59M2676.93 2787.59C2676.94 2787.59 2676.94 2787.59 2676.94 2787.59" stroke="black" stroke-width="25"/>
<ellipse cx="2212.5" cy="2629" rx="29.5" ry="47" fill="black"/>
<ellipse cx="2650.5" cy="2651" rx="29.5" ry="47" fill="black"/>
<path d="M2407.39 2920.28C2428.4 2944.62 2448.74 2970.26 2472.03 2992.53C2472.2 2992.7 2477.88 3000.26 2483.91 2999.98M2410.47 2920.89C2413.43 2932.08 2422.97 2941.97 2430.2 2950.63C2443.94 2967.11 2459.84 2985.55 2478.17 2996.99M2405 2918.1C2411.65 2933.08 2423.81 2945.94 2434.74 2957.87C2453.16 2977.97 2471.1 2998.65 2492.05 3016.16M2415.81 3000.73C2422.89 2997.07 2427.67 2990.98 2433.3 2985.44C2446.25 2972.69 2457.22 2957.46 2466.91 2942.14C2466.96 2942.06 2476.05 2927.36 2475.61 2930.92C2475.2 2934.32 2472.89 2936.83 2470.85 2939.37M2411.28 3001.7C2414.63 2999.4 2417.54 2996.78 2420.48 2993.98C2434.32 2980.82 2447.3 2967.05 2459.34 2952.21C2468.45 2940.97 2474.7 2928.09 2485.09 2918.1M2413.52 3000.83C2436.31 2986.75 2452.76 2963.51 2466.87 2941.34C2470.15 2936.19 2474.16 2931.34 2477.95 2926.57C2479.92 2924.09 2481.63 2921.21 2484.4 2919.65M2421.17 3001.23C2438.92 2989.39 2452.53 2972.93 2464.76 2955.68C2469.23 2949.37 2473.22 2941.45 2479.45 2936.67C2484.3 2932.95 2487.9 2929.55 2491.5 2924.65" stroke="white" stroke-width="10" stroke-linecap="round" stroke-linejoin="round"/>
<path d="M2307.08 2910.21C2339.14 2920.48 2345.78 2953.71 2345.09 2969.04C2339.91 3002.85 2307.38 3012.93 2284.35 3011.63C2261.31 3010.34 2221.61 2992.27 2219.84 2955.99C2217.83 2914.95 2266.99 2897.37 2307.08 2910.21Z" fill="white"/>
<path d="M2629.1 3019.32C2599.01 3037.14 2568.62 3019.38 2557.19 3008.27C2534.51 2980.93 2549.11 2948.72 2566.01 2931.72C2582.9 2914.72 2624.31 2896.36 2653.71 2919.99C2686.97 2946.74 2666.71 2997.04 2629.1 3019.32Z" fill="white"/>
<path d="M2302.8 2931C2297.92 2944.58 2289.1 2958.66 2279.86 2969.72C2276.89 2973.28 2273.6 2977.14 2269.12 2978.89C2266.93 2979.74 2266.31 2979.55 2268.39 2978.33M2302.8 2932.43C2301.25 2938.9 2297.73 2944.05 2294.1 2949.56C2289.36 2956.75 2284.93 2964.21 2279.37 2970.84C2278.11 2972.34 2264.08 2988.62 2261.8 2981.91M2299.87 2931.72C2299.66 2940.68 2293.61 2950.31 2289.34 2957.97C2284.99 2965.75 2279.03 2972.74 2272.05 2978.33M2301.34 2933.87C2292.38 2948.1 2285.03 2962.81 2274.12 2975.82C2273.49 2976.58 2263.26 2989.49 2263.26 2983.35" stroke="black" stroke-width="10" stroke-linecap="round" stroke-linejoin="round"/>
<path d="M2595.94 2941.02C2595.51 2948.25 2593.57 2955.74 2594.55 2962.99C2594.9 2965.53 2596.62 2956.57 2596.76 2955.13M2619.58 2938.16C2617.25 2953.12 2617.75 2967.18 2619.57 2982.22C2620.21 2987.53 2623.38 2995.54 2617.03 2997.97M2617.27 2941.11C2619.51 2959.72 2622.8 2979.49 2617.91 2997.86M2615.62 2942.19C2617.16 2954.96 2619.58 2967.91 2619.79 2980.76C2619.83 2983.33 2622.27 2999.37 2618.22 3000.49C2616.38 3000.99 2613.81 3000.96 2612.76 2999.37" stroke="black" stroke-width="10" stroke-linecap="round" stroke-linejoin="round"/>
</svg>
